<svg width="14" height="16" viewBox="0 0 14 16" fill="none" xmlns="http://www.w3.org/2000/svg">
<path d="M0.8125 3H3.0625V1.4375C3.0625 0.748047 3.56699 0.1875 4.1875 0.1875H9.8125C10.433 0.1875 10.9375 0.748047 10.9375 1.4375V3H13.1875C13.4986 3 13.75 3.2793 13.75 3.625V4.25C13.75 4.33594 13.6867 4.40625 13.6094 4.40625H12.5477L12.1135 14.6211C12.0854 15.2871 11.5896 15.8125 10.9902 15.8125H3.00977C2.40859 15.8125 1.91465 15.2891 1.88652 14.6211L1.45234 4.40625H0.390625C0.313281 4.40625 0.25 4.33594 0.25 4.25V3.625C0.25 3.2793 0.501368 3 0.8125 3ZM4.32812 3H9.67188V1.59375H4.32812V3Z" fill="black"/>
</svg>
