<svg width="50" height="50" viewBox="0 0 50 50" fill="none" xmlns="http://www.w3.org/2000/svg">
<g clip-path="url(#clip0)">
<path d="M20.1236 40.2296C24.5926 40.2297 28.9339 38.7387 32.4596 35.9925L45.7612 49.2941C46.7549 50.2538 48.3383 50.2262 49.298 49.2326C50.2341 48.2632 50.2341 46.7266 49.298 45.7574L35.9964 32.4558C42.8107 23.6838 41.2239 11.0486 32.4519 4.23422C23.68 -2.58017 11.0449 -0.993333 4.2305 7.77863C-2.58389 16.5506 -0.997057 29.1858 7.7749 36.0002C11.3064 38.7436 15.6516 40.2319 20.1236 40.2296ZM9.43584 9.43187C15.3386 3.52905 24.9088 3.52894 30.8116 9.43166C36.7144 15.3344 36.7145 24.9046 30.8118 30.8074C24.9091 36.7102 15.3389 36.7103 9.43606 30.8076C9.43595 30.8075 9.43595 30.8075 9.43584 30.8074C3.53312 24.9477 3.49835 15.4124 9.35806 9.50966C9.38395 9.48366 9.40984 9.45777 9.43584 9.43187V9.43187Z" fill="white"/>
</g>
<defs>
<clipPath id="clip0">
<rect width="50" height="50" fill="white"/>
</clipPath>
</defs>
</svg>
